<?xml version="1.0" encoding="iso-8859-1"?>
<!-- Generator: Adobe Illustrator 19.0.0, SVG Export Plug-In . SVG Version: 6.00 Build 0)  -->
<svg version="1.1" id="Layer_1" xmlns="http://www.w3.org/2000/svg" xmlns:xlink="http://www.w3.org/1999/xlink" x="0px" y="0px"
	 viewBox="0 0 512 512" style="enable-background:new 0 0 512 512;" xml:space="preserve">
<polygon points="512,418.236 0,418.236 0,435.172 25.6,458.804 486.4,458.804 512,435.172 "/>
<path style="fill:#FFFFFF;" d="M48,418.236v-277.6c0-6.64,5.4-12.072,12-12.072h392c6.6,0,12,5.432,12,12.072v277.6"/>
<path d="M472,418.236h-16v-277.6c0-2.2-1.832-4.08-4-4.08H60c-2.168,0-4,1.872-4,4.08v277.6H40v-277.6c0-11.08,8.968-20.08,20-20.08
	h392c11.032,0,20,9,20,20.08V418.236z"/>
<polygon style="fill:#13B7E6;" points="303.024,435.068 208.976,435.068 192.976,418.236 319.024,418.236 "/>
<path style="fill:#FF583E;" d="M425.312,223.028l-44.448-35.864l28.568-49.584l-60.32-5.272l-5.288-58.016l-50.792,24.264
	l-34.92-45.36l-32.808,46.416L172.4,72.18l-3.176,60.128l-59.256,3.168l22.224,56.968l-45.504,27.424l46.56,34.808l-23.28,49.584
	l58.2,6.328l3.176,59.072l53.968-25.32l35.976,47.472l31.744-47.472l49.736,24.264L347,309.532l58.2-1.056l-21.168-48.528
	L425.312,223.028z"/>
<g>
	<path style="fill:#FFFFFF;" d="M164.36,272.036c5.504,0.76,13.544,0.64,20.952-1.96c7.992-2.8,11.056-7.576,9.296-12.6
		c-1.68-4.792-6.288-6.256-16.688-6.328c-14.328,0.016-25.144-4.144-29.064-15.328c-4.592-13.128,2.84-26.992,20.992-33.352
		c8.672-3.04,15.704-3.44,20.992-2.984l1.04,15.392c-3.608-0.4-9.84-0.664-17.384,1.968c-7.544,2.632-9.976,7.352-8.576,11.336
		c1.704,4.912,6.816,5.552,18.056,5.856c15.328,0.256,24.2,5.104,27.992,15.944c4.504,12.888-1.6,27.328-22.696,34.72
		c-8.792,3.08-18.256,3.808-23.44,2.944L164.36,272.036z"/>
	<path style="fill:#FFFFFF;" d="M263.736,257.364l-2.968-5.232l-0.344,0.12c-2.088,5.728-6.952,10.136-13.568,12.44
		c-11.304,3.952-20.92-1.904-24.04-10.8c-5.064-14.504,5.512-26.024,25.304-32.8l-0.28-0.816c-1.04-2.96-4.112-6.616-12.68-3.624
		c-5.712,2-11.08,6.048-13.928,9.616l-7.112-10.072c3.128-3.528,9.816-8.936,19.96-12.496c18.616-6.512,28.384,2.36,32.976,15.488
		l6.792,19.408c1.864,5.352,3.888,10.416,5.544,13.288L263.736,257.364z M252.472,231.724c-9.16,3.08-15.488,7.712-13.128,14.448
		c1.56,4.448,5.288,5.592,9.176,4.232c4.328-1.52,6.872-5.608,6.768-9.552c-0.08-1-0.336-2.064-0.696-3.088L252.472,231.724z"/>
	<path style="fill:#FFFFFF;" d="M263.936,166.356l17.344-6.072l28.352,81.016l-17.344,6.072L263.936,166.356z"/>
	<path style="fill:#FFFFFF;" d="M329.208,209.348c3.08,7.008,11.36,7.936,19.456,5.104c5.936-2.08,10.44-4.552,14.6-7.688
		l6.408,10.96c-4.912,4.288-11.464,7.872-19.008,10.512c-18.936,6.616-33.616-0.544-39.712-18.008
		c-4.952-14.144-1.648-32.856,17.752-39.632c18.016-6.312,29.792,5.328,34.624,19.128c1.04,2.968,1.608,5.712,1.824,7.056
		L329.208,209.348z M345.472,190.34c-1.464-4.232-5.768-10.664-13.768-7.872c-7.296,2.56-7.952,10.216-6.768,15.048L345.472,190.34z
		"/>
</g>
<g>
</g>
<g>
</g>
<g>
</g>
<g>
</g>
<g>
</g>
<g>
</g>
<g>
</g>
<g>
</g>
<g>
</g>
<g>
</g>
<g>
</g>
<g>
</g>
<g>
</g>
<g>
</g>
<g>
</g>
</svg>
